Coordinates
version=1
nRows=27
nColumns=12
inDegrees=yes

Units are S.I. units (second, meters, Newtons, ...)
Angles are in degrees

endheader
time	SC_y	SC_z	SC_x	AC_y	AC_z	AC_x	GH_y	GH_z	GH_yy	EL_x	PS_y
       0.0              -37.43          27.44          28.02          44.54        -0.8064          5.592         -18.81          46.86          163.1          69.59          85.54
   0.03737              -37.42          27.43          28.02          44.54        -0.8049          5.593         -18.82          46.86          163.0          69.58          85.55
   0.07474              -37.42          27.43          28.02          44.54        -0.8033          5.594         -18.84          46.86          163.0          69.57          85.57
    0.1121              -37.42          27.43          28.02          44.54        -0.8015          5.595         -18.86          46.86          163.0          69.57          85.58
    0.1495              -37.41          27.42          28.03          44.54        -0.7997          5.596         -18.89          46.86          162.9          69.56          85.59
    0.1869              -37.41          27.42          28.03          44.54        -0.7977          5.597         -18.91          46.86          162.8          69.55           85.6
    0.2242               -37.4          27.41          28.03          44.54        -0.7956          5.598         -18.93          46.86          162.8          69.54          85.62
    0.2616               -37.4          27.41          28.03          44.53        -0.7934          5.599         -18.96          46.86          162.7          69.53          85.63
     0.299              -37.39           27.4          28.04          44.53         -0.791          5.601         -18.99          46.86          162.7          69.52          85.65
    0.3364              -37.38           27.4          28.04          44.53        -0.7884          5.602         -19.02          46.86          162.6          69.51          85.67
    0.3737              -37.38          27.39          28.05          44.53        -0.7857          5.604         -19.05          46.86          162.5          69.49          85.69
    0.4111              -37.37          27.39          28.05          44.53        -0.7827          5.605         -19.08          46.85          162.4          69.48          85.71
    0.4485              -37.36          27.38          28.05          44.52        -0.7795          5.607         -19.12          46.85          162.3          69.46          85.73
    0.4858              -37.35          27.37          28.06          44.52         -0.776          5.609         -19.16          46.85          162.3          69.45          85.76
    0.5232              -37.35          27.37          28.06          44.52        -0.7722          5.611         -19.21          46.85          162.1          69.43          85.78
    0.5606              -37.34          27.36          28.07          44.52        -0.7682          5.613         -19.25          46.85          162.0          69.41          85.81
     0.598              -37.32          27.35          28.08          44.51        -0.7638          5.616          -19.3          46.85          161.9          69.39          85.84
    0.6353              -37.31          27.34          28.08          44.51        -0.7589          5.618         -19.36          46.85          161.8          69.37          85.88
    0.6727               -37.3          27.33          28.09           44.5        -0.7537          5.621         -19.42          46.85          161.6          69.35          85.92
    0.7101              -37.29          27.31           28.1           44.5        -0.7479          5.624         -19.49          46.85          161.5          69.32          85.96
    0.7474              -37.27           27.3          28.11           44.5        -0.7416          5.628         -19.56          46.84          161.3          69.29           86.0
    0.7848              -37.25          27.29          28.12          44.49        -0.7346          5.632         -19.64          46.84          161.1          69.26          86.05
    0.8222              -37.24          27.27          28.13          44.48        -0.7269          5.636         -19.73          46.84          160.9          69.22           86.1
    0.8596              -37.22          27.25          28.14          44.48        -0.7184          5.641         -19.83          46.84          160.7          69.18          86.16
    0.8969              -37.19          27.23          28.16          44.47        -0.7089          5.646         -19.94          46.84          160.4          69.14          86.23
    0.9343              -37.17          27.21          28.17          44.46        -0.6984          5.652         -20.07          46.83          160.1          69.09          86.31
    0.9717              -37.14          27.19          28.19          44.45        -0.6865          5.658          -20.2          46.83          159.8          69.04          86.39
